<?xml version="1.0" encoding="UTF-8"?>
<!DOCTYPE svg PUBLIC "-//W3C//DTD SVG 1.1//EN" "http://www.w3.org/Graphics/SVG/1.1/DTD/svg11.dtd">
<!-- Creator: CorelDRAW -->
<svg xmlns="http://www.w3.org/2000/svg" xml:space="preserve" width="84.6666mm" height="84.6666mm" version="1.1" style="shape-rendering:geometricPrecision; text-rendering:geometricPrecision; image-rendering:optimizeQuality; fill-rule:evenodd; clip-rule:evenodd"
viewBox="0 0 8466.66 8466.66"
 xmlns:xlink="http://www.w3.org/1999/xlink"
 xmlns:xodm="http://www.corel.com/coreldraw/odm/2003">
 <defs>
  <style type="text/css">
   <![CDATA[
    .fil0 {fill:#2C2A28}
   ]]>
  </style>
 </defs>
 <g id="Слой_x0020_1">
  <metadata id="CorelCorpID_0Corel-Layer"/>
  <path class="fil0" d="M4495.14 2121.32c-62.1,-5.17 -128.61,-11.6 -193.39,-11.6 -15.94,-68.41 -20.27,-147.41 -30.26,-217.28 -57.78,-404.33 -106.4,-808.5 -163.8,-1213.15l-45.74 -333.3 -15.48 0c0,35.21 8.07,75.37 12.75,111.03 4.39,33.47 9.73,71.99 15.01,108.76l103.96 770.16c10.27,73.39 104.22,743.05 104.22,773.78l-92.82 0c-28.02,0 -38.74,3.87 -65.76,3.87 -62.23,-267.12 -117.5,-535.38 -176.27,-802.29l-87.51 -399.84c-31.04,-132.29 -57.05,-269.38 -88.19,-403.02 -7.06,3.49 -4.84,2.98 -15.47,3.86 0,34.38 12.42,65.45 19.62,100.29 6.82,33.02 15.7,68.14 22.61,101.16l219.15 999.21c7.5,33.75 83.8,365.49 86.72,400.63 -19.81,4.61 -50.15,5.88 -73.13,8.09 -23.72,2.27 -50.48,5.52 -75.54,9.55 -43.99,7.06 -99.21,21.39 -141.42,24.9l-572.98 -1457.62c-6.04,-15.02 -30.15,-88.56 -42,-97.24 -19.59,10.36 -13.43,4.43 1.15,41.39l518.8 1318.43c14.07,35.19 73.46,172.07 75.7,198.91 -26.9,12.91 -87.25,22.84 -119.09,31.75 -37.09,10.39 -82.63,21.45 -116.85,37.87l-623.48 -1008.75c-15.62,-24.76 -27.79,-47.14 -44.08,-71.94 -11.42,-17.38 -35.62,-62.86 -47.99,-71.92 -21.51,12.08 4.9,34.54 24.88,67.94 87.63,146.46 181.71,288.55 268.85,435.1 15.11,25.4 30.37,48.14 45.91,73.99l178.87 289.14c29.18,49.08 60.14,95.71 89.95,145.99 19.59,33.05 80.53,117.18 87.75,148.19 -15.71,3.65 -24.33,8.4 -40.13,14.02 -15.12,5.38 -24.17,9.36 -38.91,15.24l-75.67 32.62c-7.5,-14.17 -10.82,-16.34 -21.01,-29.27l-900.04 -1126.7c-15.83,-19.86 -30.62,-38.96 -45.91,-58.53l-463.63 -580.68c-12.31,-15.45 -31.93,-48.6 -50.79,-53.64l-6.96 8.51c25.15,38.36 60.96,76.8 89.85,113.59l736.58 922.72c15.77,19.79 31.26,37.75 46.39,58.05 66.63,89.44 160.75,203.7 231.71,290.44 49.95,61.04 335.58,414.33 368.34,463.25 -26.27,13.89 -55.13,23.78 -81.06,38.85 -24.53,14.25 -52.06,28.9 -77.53,42.37l-658.1 -707.24c-38.75,-48.57 -101.63,-108.79 -145.48,-156.2l-181.73 -197.33c-15.65,-15.47 -22.71,-23.4 -36.93,-40.42 -19.38,-23.17 -141.51,-143.51 -145.84,-159.72 -16.63,1.38 -6.97,-0.55 -19.34,7.73 9.49,14.18 23.7,24.13 34.81,38.68l404.98 434.34c13.63,16.31 20,23.64 35,38.5l73.87 80.84c11.36,14.24 25.61,25.26 38.33,39.02 7.72,8.34 8.19,11.11 15.46,19.36l38.47 38.88c47.03,56.26 119.39,122.67 163.01,177.36l75.04 79.67c6.38,6.35 11.49,10.72 17.23,17.59 7.76,9.28 8.5,12.07 17.5,21.17 50.43,50.97 101.08,103.12 147.23,158.33l55.83 60.2c7.15,7.44 12.1,12 19.42,19.26 12.2,12.08 26.72,28.06 35.77,41.58 -24.62,5.74 -78.52,45.92 -101.33,61.12l-95.92 66.52 -288.45 -241.45c-70.44,-55.37 -136.54,-116.63 -206.1,-172.95l-166.31 -139.24c-14,-11.33 -26.57,-21.12 -40.22,-33.27l-413.4 -344.69c-45,-36.43 -172.67,-150.72 -208.32,-174.59 -8.29,12.37 -6.35,2.7 -7.74,19.33 17.38,4.64 150.11,122.79 163.65,134.18l1108.32 926.15c14.65,11.86 27.98,24.14 43.09,34.27 -12.13,18.11 -37.23,33.19 -54.17,46.39l-162.42 143.13 -1018.47 -617.63c-61.25,-36.54 -261.79,-163.74 -318.21,-192.99 -11.92,-6.18 -7.78,-7.26 -17.06,6.12 11.01,16.45 58.98,40.42 79.03,52.47 337.24,202.68 671.11,409.98 1009.04,611.57 29.54,17.62 55.95,34.45 84.09,51.29 21.1,12.62 149.57,95.33 169.97,100.78 -6.86,10.24 -14.9,16.94 -24.19,26.09l-73.52 81.2c-9.87,10.13 -12.99,16.44 -23.16,27.11 -8.63,9.05 -15.04,17.86 -22.75,27.54 -15.07,18.92 -32.96,39.19 -45.9,58.52l-226.93 -105.7c-17.71,-8.2 -28.73,-15.02 -47.15,-22.48l-276.5 -129.62c-62.02,-29.77 -121.91,-58.76 -184.26,-86.48l-134.16 -63.11c-17.01,-7.89 -29.31,-15.69 -46.56,-23.05l-229.32 -107.18c-16.04,-8.07 -30.38,-13.53 -47.75,-21.87 -30.26,-14.52 -251.27,-122.95 -277.15,-128.98 -5.18,22.25 3.77,20.65 27.12,30.9 17.66,7.74 30,13.06 47.65,21.97l321.03 150.84c17.16,8.69 30.67,13.32 47.76,21.86 31.37,15.7 60.08,28.24 91.45,43.93 16.01,8.02 30.2,13.01 45.18,20.57 16.65,8.41 28.6,14.03 47.52,22.11 16.35,6.98 27.85,14.06 43.96,21.79 121.97,58.55 247.77,111.45 368.76,172.73 15.75,7.98 30.92,13.39 47.75,21.87 31.08,15.68 61.27,29.06 91.45,43.93 14.97,7.37 29.08,12.43 45.19,20.56 30.04,15.15 215.15,105.5 233.35,107.02 -3.64,13.63 -55.61,83.41 -64.98,97.47 -11.6,17.39 -21.29,31.61 -31.9,49.32 -9.97,16.66 -21.27,32.53 -30.76,50.47 -49.39,-23.71 -108.98,-39.78 -160.8,-59.67 -135.25,-51.91 -271.44,-97.03 -406.63,-150.33l-282.9 -103.88c-13.12,-4.89 -27.63,-9.87 -42.57,-15.45 -46.37,-17.31 -364.1,-139.46 -410.55,-150.28l-4.35 15.31c40.61,19.35 681.7,253.12 726.14,268.53 29.86,10.35 53.4,20.35 82.24,29.93l240.28 88.48c25.89,10.27 55.88,21.89 81.7,30.47 37.17,12.33 133.97,55.84 165.84,58.49 -1.51,18.12 -9.14,23.98 -16.71,37.44 -7.46,13.27 -11.1,22.57 -18.84,35.3 -43.24,71 -69.28,157.23 -103.69,228.95l-1002.71 -215.66c-47.43,-10.14 -578.67,-127.96 -606.31,-128.58 -1.02,11.98 0.05,7.31 -3.86,15.48l1502.34 323.26c33.09,7.36 69.44,18.19 102.8,20.97 -2.75,33.07 -30.56,85.09 -38.67,119.9 -47.55,0 -988.46,-137.01 -1120,-156.38 -25.36,-3.74 -54.1,-9.93 -79.03,-9.93 -1.02,11.97 0.05,7.31 -3.87,15.47 46.31,10.79 101.82,15.33 148.14,22.05l969.45 136.75c23.86,3.3 54.27,9.44 77.57,11.38 -2.48,29.85 -16.83,67.3 -24.76,99.02 -6.96,27.86 -21.65,76.78 -21.65,105.98l-2165.99 0 0 15.47 2162.12 0c-9.35,19.49 -30.94,205.45 -30.94,243.67 -26.8,0 -66.9,7.68 -93.05,11.39l-1040.91 138.78c-68.24,9.81 -320.73,37.53 -378.36,50.96 3.49,7.06 2.98,4.84 3.86,15.47 30.11,0 64.84,-8.12 93.15,-11.28l1034.62 -137.33c63.95,-8.98 125.3,-16.4 187.51,-25.22 53.89,-7.64 139.83,-23.43 193.18,-23.43 -10.48,21.83 -3.87,155.92 -3.87,193.39 -12.64,6.07 -56.15,14.01 -75.11,17.72 -178,34.85 -354.5,80.93 -531.82,117.97l-607.57 135.06c3.5,7.06 2.98,4.84 3.87,15.47 30.39,-0.68 1207.44,-266.14 1210.63,-266.88 0,53 8.09,156.72 19.33,205 -29.41,14.11 -86.16,28.09 -119.4,39.17l-720.41 234.95c-20.96,6.99 -39.84,13.88 -60.9,20.32 -15.96,4.89 -48.59,9.19 -58.51,22.72 11.08,20.92 12.58,10.66 51.75,-2.41 21.78,-7.27 41.1,-13.65 60.9,-20.32 41.78,-14.05 81.51,-25.89 122.8,-39.65l484.46 -157.6c40.09,-13.35 78.67,-27.33 118.92,-39.66 20.96,-6.41 40.6,-12.25 61.89,-19.34 15.03,-5.01 45.8,-17.46 62.37,-18.84 0,72.44 33.94,155.72 38.68,212.73 -45.62,10.63 -92.46,37.21 -135.37,54.15 -45.02,17.77 -87.5,37.41 -133.69,55.83 -180.48,71.96 -355.82,149.51 -536.04,222.06 -40.81,16.43 -228.63,90.79 -270.15,112.76l4.34 15.32c23.2,-5.37 43.68,-16.85 66.38,-25.83l942.75 -391.65c21.67,-9.58 45.79,-21.64 69.52,-27.17 0.56,24.98 44.24,161.14 54.15,181.79 -94.34,49.92 -191.98,95.95 -288.84,144.35 -14.57,7.27 -20.39,12.17 -34.71,19.44l-759.44 381.57c-43.38,21.69 -64.04,20.57 -58.02,46.42 17.26,-4.03 52.76,-24.45 70.91,-33.53l859.95 -431.9c37.5,-18.59 188.9,-104.6 217.88,-107.01 14.68,63 100.85,238.23 133.14,292.32 6.47,10.84 18.66,29.37 21.58,40.31 -5.15,7.03 -32.17,25.37 -41.74,31.75 -16.57,11.04 -29.12,19.86 -45.58,31.77 -15.49,11.21 -28.14,19.17 -43.1,30.39l-487.67 343.92c-30.64,20.89 -57.38,41.41 -88.15,62.7 -16.01,11.08 -27.87,19.57 -43.36,30.13 -9.64,6.57 -12.59,9.5 -22.39,16.28l-376.78 265.27c-29.57,20.86 -58.92,40.67 -88.35,62.51l-156.97 109.91c-11.11,7.35 -14.2,8.01 -17.67,21.01 15.34,12.81 27.86,-7.03 41.74,-16.28 150.3,-100.24 295.33,-211.32 444.84,-313.26l45.55 -31.81c88.25,-64.2 180.17,-123.62 267.42,-188.97 86.96,-65.14 179.42,-125.63 267.96,-188.46 99.8,-70.82 214.14,-147.16 310.53,-219.36 15.36,-11.5 30.19,-21.9 45.32,-32.03 12.9,24.37 27.6,47.27 42.54,69.62 9.81,14.67 38.86,53.77 42.55,69.62 -16.26,10.89 -27.99,20.83 -43.76,33.6 -15.63,12.66 -27.54,21.29 -43.57,33.79 -116.59,90.98 -229.35,186.25 -347.56,275.16 -34.26,25.77 -246.24,201.63 -265.18,206.69 1.38,16.62 -0.55,6.96 7.73,19.33 8.48,-5.68 11.82,-9.87 21.51,-17.16l153.43 -121.19c14.95,-12.29 27.73,-21.76 43.33,-34.03l222.13 -176.26c14.93,-11.92 28.62,-21.83 43.59,-33.77l133.76 -106.04c17.01,-12.63 71.63,-63.59 90.07,-68.51 6.32,23.7 48.04,69.29 64.86,89.84 11.87,14.52 22.02,29.3 34.73,42.63 12.61,13.24 30.4,27.26 31.91,45.45 -16.13,4.31 -24.67,18.85 -35.78,29.97 -54.56,54.63 -121.52,109.73 -175.99,164.38l-156.25 145.44c-7.18,5.73 -11.15,10.29 -17.8,17.01 -25.79,26.02 -163.8,148.61 -175.01,165.35l12.43 10.78c12.23,-7.92 21.43,-19.4 32.99,-31.1l69.67 -65.71c41.53,-36.56 80.2,-79.03 121.98,-113.95l88.81 -81.38c45.48,-46.02 93.74,-85.59 139.19,-131.56l71.98 -67.26c13.67,-10.91 25.8,-19.92 35.38,-34.24 0.08,0.06 162.4,162.37 162.45,162.45 -37.48,55.98 -197.69,195.85 -245.3,257.51 -22.91,29.67 -64.66,58.64 -83.46,86.73 9.2,6.16 4.03,4.68 15.47,7.73 13.36,-8.94 27.31,-29.25 39.65,-41.58l123.76 -127.63c24.6,-24.6 62.26,-57.62 82.5,-83.83 23.76,-30.78 64.33,-59.67 82.85,-87.33 10.74,7.19 17.07,15.32 29.31,24.85 38.94,30.29 190.73,158.11 229.84,168.54 -3.22,13.83 -9.29,19.32 -16.22,30.2l-111.64 182.31c-6.01,10.11 -12.55,21.23 -19.12,31.17 -26.19,39.58 -48.19,81.34 -75.06,122.2l-75.05 122.2c-49.44,82.12 -99.08,160.11 -148.44,242.22l-131.19 213.29c-10.63,16.91 -15.92,15.89 0.41,27.24 18.35,-13.44 41.96,-61.26 55.4,-83.84l92.33 -151.34c13.22,-20.45 23.96,-39.08 37.17,-59.53l367.45 -599.51c8.66,-13.71 31.85,-47.21 35.56,-61.13 18.02,1.5 107.59,59.77 127.61,69.65 22.28,10.98 39.68,21.73 63.2,33.49 23.56,11.78 46.35,20.6 68.34,32.23 -3.33,14.27 -10.13,24.18 -16.79,37.36 -37.82,74.85 -67.87,152.11 -105.67,226.97 -7.78,15.41 -11.47,22.76 -18.42,39.6l-35.7 76.46c-12.45,25.92 -23.73,51.45 -36.17,76l-89 189.48c-71.8,145.73 -141.92,315.2 -213.92,459.09 -18.32,36.62 -43.86,78.43 -52.91,117.28l15.33 4.34c45.23,-86.78 95.1,-209.72 142.02,-303.41 6.78,-13.56 10.51,-25.03 16.65,-37.49l339.09 -724.57c11.58,-24.13 65.43,-129.66 70.96,-153.37 16.05,3.74 40.56,17.01 57.42,23.79 40.03,16.12 148.5,62.02 186.25,65.17 -0.52,23.61 -112.19,324.06 -128.2,366.88 -6.39,17.11 -22.1,36.68 -7.17,50.84 16.6,-6 36.33,-81.25 42.06,-97.18 17.07,-47.5 103.87,-275.14 112.65,-312.81 83.81,19.53 192.68,54.75 278.48,61.89 -3.19,38.39 -162.76,780.78 -177.59,855.11 -7.61,38.13 -58.35,257.28 -58.35,289.76 11.98,1.03 7.32,-0.04 15.48,3.87 10.63,-45.62 19.96,-93.46 29.33,-140.84 10,-50.49 18.9,-94.37 29.63,-144.43l88.98 -425.44c11.04,-55.24 88,-395.87 88,-434.16l201.12 19.33c-0.85,38.4 -22.53,160.76 -27.77,204.3 -7.99,66.47 -20.5,141.14 -29.1,206.83 -8.5,64.78 -55.3,362.18 -55.3,416.59l15.48 0c1.66,-19.92 6.63,-45.05 9.92,-67.43l94.72 -686.58c13.82,-99.76 -13.93,-73.92 166.11,-73.71 53.88,0.07 98.18,-7.73 150.84,-7.73l0 417.73c0,50.39 3.88,86.84 3.87,135.37l-0.13 487.48c0.03,25.68 4.12,40.08 4.01,69.47l-0.04 487.39c-0.15,29.45 4.1,42.03 3.98,69.5l-0.09 487.44c-0.05,31.5 -10.57,53.48 19.34,54.15 0,-647.29 -11.6,-1292.68 -11.6,-1937.78 0,-94.23 -3.87,-178.33 -3.87,-274.62 43.46,0 92.96,-11.72 135.93,-18.78l97.31 -19.62c17.21,-4.11 16.86,-5.44 18.4,14.69 7.32,95.55 22.6,191.39 30.82,286.62 8.99,104.17 61.78,503.36 61.78,572.54l19.34 0c0,-39 -40.9,-386.92 -48.07,-439.27 -6.6,-48.12 -48.63,-396.11 -48.63,-442.59 45.15,-3.76 94.14,-24.8 137.01,-37.05 44.18,-12.61 87.48,-34.3 129.87,-44.18 9.05,18.86 32.54,132.91 37.87,155.53l190.29 788.27c12.38,50.93 25.44,105.46 37.94,155.45 9.85,39.37 23.83,125.22 39.46,157.8 7.06,-3.5 4.84,-2.98 15.47,-3.87l-283.9 -1178.14c-5.78,-23.1 -17.27,-59.41 -17.79,-82.77 17.83,-9.44 45.06,-19.35 65.22,-27.61l125.59 -60.06c22.64,-11.32 40.16,-21.42 60.6,-32.24 2.62,31.55 39.64,107.67 51.73,141.67 50.49,142 105.6,280.52 159.36,420.82 30.36,79.23 190.04,517.06 214.37,563.05 7.06,-3.5 4.84,-2.98 15.47,-3.87l-372.44 -985.16c-17.64,-45.08 -42.06,-97.19 -53.02,-144.24l136.19 -84.28c16.15,-10.82 29.78,-21.16 45.6,-31.75 6.46,27.73 56.56,102.65 73.29,131.7 8.52,14.8 19.41,29.07 23.4,46.21 10.18,-2.36 11.37,-3.51 19.34,-7.73 -9.58,-14.31 -16.74,-27.38 -25.88,-43.74l-78.55 -138.05c21.84,-5.83 45.57,-30.77 63.52,-44.78 33.33,-26.02 69.11,-60.3 102.8,-82.86l401 651.05c27,45.37 54.34,86.03 81.27,131.46l150.19 244.33c9.68,15.07 1.11,9.14 13.47,13.61 11.12,-10.55 13.56,-3.89 -3.55,-31.19 -7.48,-11.95 -13.39,-20.68 -20.91,-33.32l-122.35 -198.68c-146.04,-242.39 -302.01,-482.55 -446.18,-725.77 -10.44,-17.61 -35.78,-50.53 -37.47,-70.83 24.26,-6.48 200.21,-196.79 212.73,-220.47 8.71,6.39 24.89,29.44 33.12,40.38l292.31 372.95c73.26,98.34 152.13,193.95 227.67,290.62l324.37 414.39c12.01,15.05 22.39,27.16 34.23,43.12l96.69 123.77c15.22,20.53 17.63,35 39.79,29.84 -1.51,-18.21 -48.8,-71.18 -60.99,-85.99l-193.78 -247.15c-88.04,-110.35 -172.01,-221.34 -260.18,-331.6l-64.33 -82.65c-23,-27.96 -41.82,-53.61 -64.41,-82.56 -52.74,-67.6 -383.55,-480.12 -389.02,-500.58 22.31,-33.32 72.91,-91.95 107.53,-143.89 34.95,-52.43 67.52,-101.21 97.47,-157.8 21.34,4.97 94.54,74.18 110.52,86.73 74.81,58.8 144.89,123.74 218.81,183.44 9.99,8.07 16.29,14.55 27.05,23.24 8.95,7.23 18.46,15.1 27.39,22.89l189.21 158.9c5.34,4.32 6.78,6.34 12.26,10.95l96.69 81.22c43.26,36.35 155.05,134.9 192.2,159.78 3.22,-6.51 3.56,-6.8 7.73,-11.61 -12.5,-18.67 -32.89,-31.39 -50.82,-45.87l-108.95 -92.17c-19.13,-16.1 -35.44,-29.94 -55.19,-45.38l-136.15 -115.26c-8.93,-7.79 -18.44,-15.66 -27.4,-22.89l-161.99 -135.83c-71.35,-63.54 -147.26,-120.15 -218.59,-183.66l-54.35 -46.22c-14.83,-12.48 -39.1,-39 -56.82,-43.74 3.89,-16.68 16.13,-32.04 24.51,-48.97 17.67,-35.69 69.57,-128.5 72.19,-159.89 16.91,1.41 18.53,8.45 32.47,17.81l990.92 687.71c144.51,100.14 287.74,203.05 433.96,300.93 11.75,7.86 21.24,13.56 32.35,21.8l185.05 128.24c46.45,32.99 276.61,197.17 313.31,216.59l7.95 -15.36 -92.32 -62.72c-11.76,-7.99 -20.14,-14.9 -31.67,-22.49l-184.84 -128.44c-21.85,-14.56 -40.13,-27.64 -61.97,-42.46 -11.28,-7.66 -17.36,-13.02 -29.33,-20.96 -12.33,-8.19 -20.67,-13.29 -32.19,-21.95l-187.34 -129.83c-20.33,-15.1 -41.1,-28.77 -61.31,-43.12l-91.23 -63.48c-11.95,-8.29 -21.71,-13.97 -32.51,-21.64l-372.14 -258.32c-11.51,-7.7 -17.81,-13.26 -29.32,-20.96 -11.74,-7.86 -21.23,-13.56 -32.34,-21.81l-401.65 -279.09c-11.13,-7.36 -20.66,-13.55 -32.04,-22.1 -10.55,-7.92 -19.66,-13.66 -29.87,-20.41l-216.6 -150.85c-15.48,-11 -48.52,-37.96 -65.74,-42.56 2.86,-34.37 65.35,-161.37 69.62,-212.73 12.91,1.07 21.5,8.48 31.69,14.73l57.49 35.33c10.69,6.36 17.4,11.13 28.49,17.92l117.51 72.01c38.73,25.04 78.13,49.4 117.01,72.52l231.85 143.33c18.49,12.23 37.49,23.64 57.29,35.54l294.69 181.06 7.94 -15.36c-20.46,-10.83 -38.39,-23.34 -58.05,-35.11l-408.6 -252.79c-10.3,-6.78 -19.5,-11.98 -28.87,-17.55 -122.44,-72.81 -332.03,-213.47 -440.7,-270.97l46.44 -208.84c3.52,-21.38 11.09,-55.81 11.57,-77.38 42.96,20.62 519.7,184.9 594.24,210.27l239.74 85.16c241.06,79.54 477.38,173.13 717.47,253.35l240.49 84.41c20.93,8.29 39.34,13.21 60.2,21.03 8.61,3.23 18.68,7.33 28.12,10.69 10.67,3.79 24,12.01 28.81,2.3 7.78,-15.71 -32.92,-23.15 -46.25,-27.54l-179.79 -63.88c-160.62,-53.15 -320.03,-116 -480.65,-169.15 -161.61,-53.47 -316.84,-113.49 -477.68,-168.24l-479.89 -169.91c-40.31,-15.96 -80.03,-26.81 -120.48,-41.97 -36.94,-13.85 -80.9,-32.78 -120.46,-41.99 0,-47.15 11.61,-106.44 11.61,-170.19 33.9,0.76 1233.37,359.03 1287.98,363.58 -0.61,-27.6 -22.7,-22.84 -65.3,-35.27 -26.38,-7.69 -53.71,-15.18 -81.22,-23.2l-1056.38 -301.24c-26.37,-7.37 -54.92,-17.08 -81.22,-23.2l0 -177.93c21.51,10.32 101.26,20.46 129.27,25.45 45.71,8.14 88.67,15.6 130.87,23.84 87.91,17.16 172.36,33.25 260.96,48.47 172.29,29.61 346.7,66.7 522.16,96.7 174.16,29.77 347.72,66.87 522.15,96.69 84.49,14.45 175.12,34.47 260.73,48.7 45.89,7.64 222.23,46.94 262.49,46.94 -0.61,-27.43 -18.54,-19.49 -51.24,-26.12 -22.31,-4.53 -44.83,-8.64 -65.32,-12.04 -219.58,-36.51 -436.96,-83.86 -655.95,-121.49 -41.72,-7.16 -85.47,-16.31 -130.33,-24.37l-789.64 -146.38c-52.21,-9.82 -361.4,-71.86 -400.01,-71.86 0,-101.61 -30.95,-251.17 -30.95,-286.22 488.01,0 969.79,11.61 1458.17,11.61 84.37,0 155.45,3.87 239.81,3.87 82.51,0 165.03,0 247.54,0l0 -15.48c-80.61,0 -155.6,-3.86 -239.81,-3.86 -82.55,0 -165.13,0.24 -247.67,0.13 -24.45,-0.04 -32.15,-4.2 -57.79,-4.09l-371.49 0.18c-25.65,0.1 -33.35,-4.06 -57.8,-4.09 -81.25,-0.11 -162.54,0.13 -243.8,0.13 -85.42,0 -161.96,-3.87 -243.68,-3.87 -82.51,0 -165.03,0 -247.54,0 -84.42,0 -157.61,-3.87 -243.67,-3.87 0,-60.32 -41.44,-143.58 -42.55,-193.39 39.55,0 78.59,-8.27 116.14,-11.49 113.82,-9.78 227.49,-28.04 343.78,-39.15l457.89 -52.65c192.94,-24.5 380.13,-38.35 573,-65.19l229.24 -26.04c31.6,-4.02 82.64,-7.19 113.3,-14.34l0 -15.47c-56.02,0 -115.53,12.6 -170.87,18.65l-288.71 32.32c-152.03,16.89 -308.86,38.55 -461.32,53.1 -76,7.26 -156.15,17.05 -228.98,26.3l-343.82 39.1c-39.41,4.91 -75.34,8.88 -114.96,12.67 -42.33,4.05 -196.94,26.72 -232.42,26.72 -10.23,-43.9 -29.92,-93.98 -46.38,-135.41l-54.19 -131.47c33.04,-0.73 95.79,-19.99 129.98,-28.6l256.76 -60.4c42.03,-10.23 88.08,-21.4 128.64,-29.94l385.87 -89.88c171.05,-41.88 345.44,-84.75 517.28,-120.91l388.5 -91.11c44.05,-11.06 84.12,-19.02 128.41,-30.17l97.81 -22.1c17.67,-4 20.11,-1.26 20.57,-21.97 -16.09,0.36 -47.29,8.87 -64.23,13.13l-451.15 105.81c-87.45,18.41 -169.65,41.51 -257.23,59.94 -40.56,8.54 -86.61,19.71 -128.64,29.94 -161.01,39.16 -354.41,87.3 -514.06,120.26 -41.95,8.66 -86.32,21.65 -128.27,30.31 -78.91,16.29 -476.25,116.75 -517.97,120.22 -34,-64.25 -63.92,-132.88 -104.44,-193.39 22.15,-1.84 161.59,-57.59 185.08,-66.34l276.84 -102.2c32.82,-12.6 60.59,-21.64 93.4,-34.24 246.43,-94.57 497.49,-177.25 743.14,-274.1l138.73 -50.79c15.6,-5.99 35.06,-11.46 48.06,-17.7l-7.95 -15.35c-15.67,3.58 -29.85,10.06 -45.62,15.94l-325 119.79c-126.15,41.88 -247.56,93.69 -373.27,137.28 -15.92,5.52 -30.46,11.23 -44.93,16.96 -14.72,5.84 -29.48,10.39 -45.29,16.6 -32.06,12.59 -61.4,22.36 -93.37,34.27 -61.07,22.75 -124.93,46.34 -186.73,68.54 -57.63,20.72 -341.81,133.13 -374.69,135.87 -6.96,-26.07 -34.88,-58.55 -50.3,-81.22 -6.71,-9.86 -14.25,-16.56 -15.45,-30.95 20.43,-4.76 496.27,-244.27 546.65,-269.46l1505.88 -749.07c46.51,-23.25 91.91,-44.65 136.66,-68.33l-7.95 -15.36c-44.59,23.6 -91.03,43.57 -137.74,66.93 -133.14,66.57 -2034.54,1017.99 -2058.97,1023.69 -17.29,-32.67 -46.15,-64.5 -69.12,-93.34 -18.78,-23.58 -58.54,-65.37 -73.99,-88.45 15.34,-10.27 31.63,-22.73 46.97,-34.25l283.35 -207.87c113.73,-78.28 223.03,-164.07 334.34,-245.83l477.45 -350.27c32.12,-24.13 61.04,-44.82 93.96,-68.48 96.47,-69.36 189.21,-145.05 287.85,-211.11l-7.95 -15.35 -189.85 138.58c-32.13,24.25 -64.46,46.31 -96.16,70.16l-477.4 350.32c-65.94,49.72 -212.23,160.03 -285.32,209.76l-452.86 332.31c-8.95,6.82 -15.33,13.71 -25.99,16.56 -25.39,-17.01 -67.24,-79.3 -88.96,-85.09 3.85,-14.39 60.41,-63.3 75.73,-75.12 41.35,-31.94 157.56,-149.23 200.52,-182.4l219.77 -197.95c7.43,-6.55 12.19,-12.34 19.3,-19.39l102.4 -90.99c7.57,-6.33 12.44,-12.15 19.45,-19.22 24.7,-24.9 54.55,-46.17 79.36,-71.49 37.74,-38.53 82.21,-70.21 119.95,-108.25 7.01,-7.08 11.88,-12.89 19.45,-19.22l61.77 -54.27c7.02,-7.07 11.89,-12.89 19.46,-19.22l100.36 -89.16c7.58,-6.69 11.89,-12.48 19.32,-19.36l142.76 -127.99c7.91,-6.3 12.35,-11.74 19.66,-19.01l41.02 -36.62c12.67,-12.26 11.57,-7.19 8.37,-22.3 -25.41,2.12 -44.28,33.48 -63.03,49.15 -9.28,7.76 -12.07,8.48 -21.17,17.5 -6.55,6.49 -10.56,11.3 -17.28,17.53 -8.85,8.18 -12.52,9.12 -21.37,17.3l-200.91 182.02c-27.21,22.74 -51.17,51.49 -78.49,72.34l-399.28 362.69c-8.47,8.42 -10.42,8.92 -19.03,15.78l-100.96 92.43c-37.98,38.78 -82,69.99 -119.95,108.25l-40.63 36.73c-7.31,7.28 -11.75,12.72 -19.65,19.02l-59.64 52.53c-31.52,30.36 -89.48,87.08 -122.73,109.35l-161.93 -139.76c-8.86,-7.12 -16.51,-15.87 -27.59,-18.82 5.62,-21.06 54.52,-69.07 72.33,-90.12 6.05,-7.16 5.39,-7.96 11.86,-15.22 46.63,-52.35 88.98,-109.9 137.24,-160.58 8.99,-9.43 16.17,-18.84 24.91,-29.24l176.15 -206.76c6.47,-7.25 5.81,-8.06 11.86,-15.22l37.51 -43.71c8.73,-11.28 15.09,-16.75 24.86,-29.3 47.41,-60.94 104.02,-116.37 151.44,-177.32l300.43 -353.24c42.55,-44.67 103.58,-124.97 148.97,-175.92 17.85,-20.04 32.06,-38.57 50.21,-58.09l36.98 -44.24c6.21,-7.39 8.62,-9.37 14.27,-16.68l250.51 -294.85c17.85,-20.03 32.07,-38.57 50.21,-58.09l25.09 -29.06c6.35,-7.13 5.89,-8.03 11.89,-15.18 15.07,-17.93 59.1,-59.49 60.69,-78.55 -23.35,-5.45 -15.17,-1.39 -30.1,16.29 -8.92,10.57 -15.41,19.06 -25.02,29.15 -41.98,44.09 -97.32,113.45 -137.07,160.75 -6.01,7.15 -5.54,8.05 -11.9,15.18l-350.17 411.79c-5.06,5.98 -8.09,7.94 -13.15,13.92l-38.87 46.23c-9.63,10.11 -15.92,18.64 -25.03,29.11 -6.13,7.03 -6.08,8.29 -11.9,15.17l-164.19 191.66c-6.82,7.34 -6.5,8.22 -12.01,15.06 -4.98,6.19 -7.79,8.08 -13.07,14.01 -6.36,7.13 -5.89,8.02 -11.9,15.17 -5.4,6.43 -7.08,7.36 -12.63,14.45l-99.32 117.28c-54.4,58.52 -113.08,131.34 -164.18,191.66l-426.05 502.22c-14.94,18.55 -57.45,58.06 -62.45,76.79 -13.48,-3.14 -77.48,-47.61 -85.1,-58.01 17.74,-33.51 61.71,-86.19 86.2,-118.8l834.89 -1130.56c12.76,-18.14 2.65,-25.51 -8.02,-18.66 -10.95,7.04 -43.86,57.28 -51.31,68.22l-116.33 158.29c-20.7,27.75 -39.4,51.1 -59.27,79.97l-349.68 474.17c-76.2,108.51 -180.21,245.71 -261.33,353.65 -16.84,22.39 -81.36,101.91 -86.75,122.11 -31.12,-2.59 -108.67,-72.3 -146.98,-81.22 44.15,-83.44 97.44,-163.56 146.25,-244.4l995.49 -1646.24c15.18,-25.15 37.93,-47.96 22.48,-62.62 -16.43,5.95 -29.82,42.38 -39.44,57.26 -85.04,131.57 -174.83,287.87 -256.71,424.03l-883.54 1460.36c-35.8,-18.94 -118.44,-65.04 -154.72,-73.48 38.13,-79.46 68.67,-163.78 103.37,-244.75 69.71,-162.68 135.42,-327.52 207.38,-488.82l208.05 -492.03c83.66,-204.3 174.87,-406.8 259.19,-611.07 8.19,-19.85 17.59,-41.76 26.64,-62.33 8.86,-20.18 16.84,-42.87 26.96,-61.99 -7.97,-4.22 -9.17,-5.37 -19.34,-7.74 -2.11,25.3 -89.63,216 -101.66,246.44 -8.46,21.4 -17.44,40.31 -25.43,59.67l-78 185c-71.49,161.93 -135.57,327.18 -207.45,488.77 -18.54,41.7 -33.78,81.48 -51.71,122.35 -88.52,201.85 -170.63,409.59 -259.14,611.11 -8.5,19.36 -16.56,38.89 -25.31,59.79l-65.76 154.71c-5.29,12.61 -10.58,21.67 -13.25,33.15 -52.54,-27.8 -167.2,-69.98 -232.07,-85.09 0.76,-34.28 19.3,-84.95 27.85,-119.12l293.17 -1203.68c9.91,-39.36 21.93,-82.57 29.99,-120.86 22.85,-108.65 59.96,-250.71 87.6,-361.07 9.42,-37.59 26.19,-82.93 29.39,-121.45 -11.97,-1.02 -7.31,0.05 -15.47,-3.87 -10.35,21.58 -389.8,1594 -410.77,1677.86 -8.16,32.66 -57.24,214.43 -57.24,244.45 -15.96,-0.35 -38.06,-7.37 -50.74,-11.14 -50.04,-14.86 -102.15,-23.13 -154.25,-35.27l16.04 -227.63c7.29,-66.59 6.92,-161.35 15.96,-227.72 9.96,-73.16 5.22,-151.2 16.65,-227.02 5.45,-36.2 2.28,-75.84 7.73,-112.17 5.54,-36.83 3.73,-81.62 8.32,-115.46 9.27,-68.52 10.9,-158.31 16.31,-227.36l8.16 -142.68c1.15,-14.55 2.86,-10.98 3.65,-27.29l7.74 -112.17c3.86,-80.06 19.17,-227.17 19.34,-290.08 0.11,-37.89 7.74,-76.67 7.74,-116.04l-19.34 0c0,37.99 -2.32,81.25 -6.68,113.23 -9.3,68.3 -11.24,204.26 -19.83,281.86l-16.25 258.36c-7.7,98.18 -20.84,216.19 -23.07,309.57 -1.84,77.38 -19.4,221.97 -19.22,286.33 0.15,55.98 -11.12,112.76 -11.58,170.21 -0.18,21.56 -3.26,33.07 -3.86,58.03 -2.35,98.68 -23.28,249.68 -23.28,344.16l-128.02 -18.96c-13.04,-12.75 0.56,-118.53 0.47,-139.53 -0.2,-49.02 -0.09,-98.05 -0.09,-147.07 0,-52.8 3.87,-92.82 3.87,-146.97 0,-196.69 7.78,-386.65 7.73,-584.05l4.44 -289.52c7.38,-65.71 3.65,-147.47 3.25,-217.21 -0.17,-29.5 4.1,-42.98 3.94,-73.42 -1.02,-199.05 7.71,-390.52 7.71,-587.93l-19.34 0 0.03 205.02c0.15,28.33 -3.99,40.31 -4.02,65.6 -0.07,46.44 0.13,92.91 0.13,139.37 0,50.32 -3.88,86.18 -3.87,135.37 0.03,275.96 -11.61,544.86 -11.61,819.98 0,50.11 -3.92,88.59 -3.86,135.37 0.05,46.42 -0.06,92.84 0,139.25 0.05,46.79 -3.87,85.26 -3.87,135.37 0,44.47 2.37,95.64 0.02,139.26 -4.66,86.15 -0.6,184.76 -7.76,270.73z"/>
 </g>
</svg>
